<svg width="96" height="40" viewBox="0 0 96 40" fill="none" xmlns="http://www.w3.org/2000/svg">
<path fill-rule="evenodd" clip-rule="evenodd" d="M34.0283 25.1516C32.6421 25.1516 31.5199 24.0595 31.5199 22.7103C31.5199 21.3612 32.6421 20.274 34.0283 20.274C35.4145 20.274 36.5366 21.3612 36.5366 22.7103C36.5366 24.0595 35.4145 25.1516 34.0283 25.1516ZM13.9717 25.1516C12.5855 25.1516 11.4634 24.0595 11.4634 22.7103C11.4634 21.3612 12.5855 20.274 13.9717 20.274C15.3579 20.274 16.4801 21.3612 16.4801 22.7103C16.4801 24.0595 15.3579 25.1516 13.9717 25.1516ZM35.5109 15.3767L36.4452 14.0029L37.3795 12.6488L39.4613 9.60463C39.7202 9.22905 39.6136 8.72494 39.2277 8.47785C38.8469 8.22581 38.3239 8.32959 38.0751 8.70517L34.8965 13.3357L33.9419 14.7293C30.9207 13.5877 27.5543 12.9503 24 12.9503C20.4508 12.9503 17.0792 13.5877 14.0581 14.7293L13.1085 13.3357L12.1692 11.9668L9.93504 8.70517C9.67608 8.32959 9.15819 8.23075 8.77229 8.47785C8.39147 8.72494 8.28483 9.22905 8.53871 9.60463L10.6205 12.6488L11.5548 14.0029L12.4942 15.3767C5.40077 18.5938 0.602417 24.687 0.602417 31.66H47.3976C47.3976 24.687 42.5992 18.5938 35.5109 15.3767Z" fill="#95CF00"/>
<path d="M57.8976 2.5V37.5H92.8976V37.4412L84.2101 28.6912L75.5226 19.9325L84.2101 11.1675L92.8201 2.5H57.8976Z" fill="url(#paint0_linear_5_194)"/>
<path d="M75.7951 2.5L57.8976 20.3975V37.5H58.0526L75.5626 19.99L75.5238 19.9513L84.2101 11.1875L92.8201 2.5H75.7951Z" fill="url(#paint1_linear_5_194)"/>
<defs>
<linearGradient id="paint0_linear_5_194" x1="57.5071" y1="37.8448" x2="92.9346" y2="2.02208" gradientUnits="userSpaceOnUse">
<stop stop-color="#0296D8"/>
<stop offset="1" stop-color="#8371D9"/>
</linearGradient>
<linearGradient id="paint1_linear_5_194" x1="53.1526" y1="32.2635" x2="89.3928" y2="-0.644645" gradientUnits="userSpaceOnUse">
<stop stop-color="#CB55C0"/>
<stop offset="1" stop-color="#F28E0E"/>
</linearGradient>
</defs>
</svg>
