<svg width="60" height="76" viewBox="0 0 60 76" fill="none" xmlns="http://www.w3.org/2000/svg">
<path d="M27.2969 0.5H39.6875V57.2781C34.3984 58.3636 29.0149 58.9236 23.6156 58.95C8.48438 58.9344 0.609375 52.175 0.609375 39.1937C0.609375 26.6938 8.9625 18.5687 21.9094 18.5687C23.7252 18.5333 25.5374 18.7436 27.2969 19.1938V0.5ZM27.2969 29.0688C25.9498 28.6244 24.5369 28.413 23.1188 28.4438C16.8688 28.4438 13.2344 32.2656 13.2344 38.9625C13.2344 45.4844 16.6938 49.0844 23.0406 49.0844C24.4651 49.084 25.8876 48.9796 27.2969 48.7719V29.0844V29.0688Z" fill="#44B78B"/>
<path d="M59.375 19.4343V47.8718C59.375 57.6625 58.6406 62.3687 56.4906 66.4281C54.2964 70.5556 50.7084 73.7704 46.3656 75.5L34.8719 70.0843C39.0475 68.6545 42.5447 65.7273 44.6875 61.8687C46.4563 58.3656 47.0156 54.3062 47.0156 43.6281V19.4343H59.375Z" fill="#44B78B"/>
<path d="M59.3906 0.5625H47.0031V13.15H59.3906V0.5625Z" fill="#44B78B"/>
</svg>
