<svg width="78" height="80" viewBox="0 0 78 80" fill="none" xmlns="http://www.w3.org/2000/svg">
<path d="M77.8118 18.0981C77.8406 18.2048 77.8556 18.3147 77.8556 18.4252V35.597C77.8556 36.0456 77.6156 36.4599 77.2265 36.6831L62.8139 44.9811V61.4282C62.8139 61.8758 62.576 62.289 62.1879 62.5144L32.1028 79.8333C32.0339 79.8724 31.9588 79.8974 31.8837 79.924C31.8555 79.9334 31.8289 79.9506 31.7992 79.9585C31.5889 80.0139 31.3678 80.0139 31.1575 79.9585C31.1231 79.9491 31.0918 79.9303 31.0589 79.9178C30.9901 79.8927 30.9181 79.8708 30.8523 79.8333L0.773531 62.5144C0.384607 62.2909 0.144379 61.8768 0.144379 61.4282V9.91286C0.144379 9.80017 0.160029 9.69062 0.1882 9.5842C0.197591 9.5482 0.219501 9.51533 0.232022 9.47934C0.255498 9.4136 0.277408 9.34631 0.31184 9.28527C0.335315 9.24458 0.369747 9.21171 0.397918 9.17415C0.433914 9.12407 0.46678 9.07242 0.509037 9.0286C0.545033 8.99261 0.591984 8.966 0.632676 8.9347C0.678062 8.89714 0.718754 8.85645 0.770401 8.82671H0.771966L15.8121 0.167259C16.1997 -0.0557531 16.6766 -0.0557531 17.0642 0.167259L32.1044 8.82671H32.1075C32.1576 8.85801 32.1998 8.89714 32.2452 8.93313C32.2859 8.96443 32.3313 8.99261 32.3673 9.02704C32.4111 9.07242 32.4424 9.12407 32.48 9.17415C32.5066 9.21171 32.5426 9.24458 32.5645 9.28527C32.6005 9.34787 32.6208 9.4136 32.6459 9.47934C32.6584 9.51533 32.6803 9.5482 32.6897 9.58576C32.7185 9.69241 32.7332 9.80238 32.7335 9.91286V42.0888L45.2665 34.8724V18.4236C45.2665 18.3141 45.2821 18.203 45.3103 18.0981C45.3213 18.0605 45.3416 18.0277 45.3541 17.9917C45.3792 17.9259 45.4011 17.8586 45.4355 17.7976C45.459 17.7569 45.4934 17.724 45.52 17.6865C45.5576 17.6364 45.5889 17.5848 45.6327 17.5409C45.6687 17.5049 45.7141 17.4783 45.7548 17.447C45.8017 17.4095 45.8424 17.3688 45.8925 17.339H45.8941L60.9358 8.67959C61.3233 8.45626 61.8004 8.45626 62.1879 8.67959L77.228 17.339C77.2812 17.3703 77.3219 17.4095 77.3689 17.4455C77.408 17.4768 77.4534 17.5049 77.4894 17.5394C77.5332 17.5848 77.5645 17.6364 77.6021 17.6865C77.6303 17.724 77.6647 17.7569 77.6866 17.7976C77.7226 17.8586 77.743 17.9259 77.768 17.9917C77.7821 18.0277 77.8024 18.0605 77.8118 18.0981ZM75.3484 34.8724V20.5928L70.0851 23.6227L62.8139 27.8093V42.0888L75.35 34.8724H75.3484ZM60.3082 60.7036V46.4146L53.1559 50.4994L32.732 62.156V76.5795L60.3082 60.7036ZM2.6516 12.0805V60.7036L30.2247 76.5779V62.1575L15.82 54.0052L15.8153 54.002L15.809 53.9989C15.7605 53.9707 15.7198 53.93 15.6744 53.8956C15.6353 53.8643 15.5899 53.8393 15.5555 53.8048L15.5523 53.8001C15.5117 53.761 15.4835 53.7125 15.4491 53.6687C15.4178 53.6264 15.3802 53.5904 15.3552 53.5466L15.3536 53.5419C15.3254 53.495 15.3082 53.4386 15.2879 53.3854C15.2675 53.3384 15.2409 53.2946 15.2284 53.2445V53.243C15.2127 53.1835 15.2096 53.1209 15.2033 53.0599C15.1971 53.0129 15.1846 52.966 15.1846 52.919V52.9159V19.2969L7.91488 15.1088L2.6516 12.082V12.0805ZM16.4397 2.69952L3.90834 9.91286L16.4366 17.1262L28.9664 9.91129L16.4366 2.69952H16.4397ZM22.9566 47.7168L30.2263 43.5318V12.0805L24.963 15.1104L17.6918 19.2969V50.7483L22.9566 47.7168ZM61.5618 11.2119L49.032 18.4252L61.5618 25.6385L74.0901 18.4236L61.5618 11.2119ZM60.3082 27.8093L53.037 23.6227L47.7737 20.5928V34.8724L55.0434 39.0573L60.3082 42.0888V27.8093ZM31.4768 59.9884L49.8552 49.4962L59.0421 44.2533L46.5217 37.0447L32.1059 45.3441L18.9673 52.9081L31.4768 59.9884Z" fill="#FF2D20"/>
</svg>
