<svg width="225" height="67" viewBox="0 0 225 67" fill="none" xmlns="http://www.w3.org/2000/svg">
<path d="M33.0191 3.5H2.19134L20.3822 34.7414L0 63.5H12.0255L31.7962 35.3621L18.9554 13.6379H28.1274L40.7643 34.7414L20.3822 63.5H64V53.3621H39.5414L51.7707 35.1552L33.0191 3.5Z" fill="#25BECE"/>
<path d="M64 3.7069H42.5987L48.3057 13.6379H64V3.7069Z" fill="#25BECE"/>
<path d="M76.38 31V8.6H92.988V12.12H80.316V17.944H91.548V21.496H80.316V27.48H93.148V31H76.38ZM97.3375 31V14.104H101.242V17.912C102.298 15.352 104.25 13.656 107.226 13.784V17.88H107.002C103.578 17.88 101.242 20.088 101.242 24.568V31H97.3375ZM114.64 31.352C111.472 31.352 108.624 29.56 108.624 26.136V26.072C108.624 22.392 111.504 20.632 115.632 20.632C117.552 20.632 118.864 20.92 120.176 21.336V20.92C120.176 18.488 118.704 17.24 115.984 17.24C114.064 17.24 112.688 17.656 111.152 18.296L110.096 15.256C111.984 14.456 113.808 13.88 116.496 13.88C119.024 13.88 120.88 14.52 122.096 15.768C123.344 17.016 123.92 18.776 123.92 20.984V31H120.144V28.888C118.992 30.264 117.232 31.352 114.64 31.352ZM115.728 28.536C118.288 28.536 120.24 27.096 120.24 24.92V23.768C119.248 23.384 117.936 23.096 116.4 23.096C113.872 23.096 112.432 24.12 112.432 25.912V25.976C112.432 27.608 113.84 28.536 115.728 28.536ZM128.525 31V14.104H132.429V16.664C133.517 15.16 134.989 13.752 137.581 13.752C140.013 13.752 141.741 14.936 142.637 16.728C144.013 14.936 145.773 13.752 148.333 13.752C152.045 13.752 154.253 16.088 154.253 20.216V31H150.381V21.4C150.381 18.712 149.133 17.272 146.957 17.272C144.813 17.272 143.341 18.744 143.341 21.464V31H139.469V21.368C139.469 18.712 138.221 17.272 136.045 17.272C133.869 17.272 132.429 18.872 132.429 21.464V31H128.525ZM167.22 31.32C163.764 31.32 160.564 30.168 157.876 27.736L160.244 24.92C162.42 26.808 164.532 27.832 167.316 27.832C169.748 27.832 171.284 26.68 171.284 25.016V24.952C171.284 23.384 170.388 22.456 166.228 21.528C161.46 20.408 158.772 18.936 158.772 14.84V14.776C158.772 10.936 161.972 8.28 166.42 8.28C169.716 8.28 172.244 9.272 174.548 11.096L172.436 14.072C170.388 12.568 168.404 11.768 166.356 11.768C164.052 11.768 162.708 12.92 162.708 14.424V14.488C162.708 16.216 163.732 16.984 168.052 18.008C172.756 19.224 175.22 20.824 175.22 24.568V24.632C175.22 28.856 171.924 31.32 167.22 31.32ZM187.433 31.384C182.281 31.384 178.473 27.448 178.473 22.648V22.584C178.473 17.752 182.313 13.752 187.497 13.752C192.713 13.752 196.489 17.688 196.489 22.52V22.584C196.489 27.352 192.649 31.384 187.433 31.384ZM187.497 27.992C190.665 27.992 192.617 25.56 192.617 22.648V22.584C192.617 19.608 190.473 17.144 187.433 17.144C184.329 17.144 182.345 19.576 182.345 22.52V22.584C182.345 25.528 184.521 27.992 187.497 27.992ZM201.296 31V17.432H199.152V14.2H201.296V12.952C201.296 11.096 201.744 9.72 202.672 8.792C203.568 7.896 204.816 7.448 206.448 7.448C207.824 7.448 208.752 7.64 209.616 7.896V11.16C208.848 10.904 208.208 10.744 207.344 10.744C205.84 10.744 205.104 11.608 205.104 13.304V14.232H209.584V17.432H205.168V31H201.296ZM218.127 31.288C215.279 31.288 213.263 30.04 213.263 26.328V17.432H211.119V14.104H213.263V9.464H217.135V14.104H221.679V17.432H217.135V25.72C217.135 27.224 217.903 27.832 219.215 27.832C220.047 27.832 220.847 27.64 221.615 27.256V30.424C220.623 30.968 219.631 31.288 218.127 31.288Z" fill="white"/>
<path d="M81.296 59C80.336 59 79.664 58.744 79.232 58.264L78.992 57.992L78.672 58.168C78.24 58.408 77.68 58.536 77.024 58.536H75.84C73.968 58.536 72.976 57.352 72.992 55.288L73.008 53.736C73.024 52.92 73.232 52.328 73.664 51.944C74.192 51.416 74.912 51.16 75.84 51.16H78.528V50.792L79.92 50.456V55.608C79.92 56.84 80.56 57.56 81.712 57.56H82.128V59H81.296ZM74.32 55.544C74.32 56.536 74.784 57.112 75.728 57.112H77.024C77.984 57.112 78.48 56.6 78.528 55.56V52.584H75.84C74.864 52.584 74.32 53.096 74.32 54.12V55.544ZM74.56 49.912V48.536H75.952V49.912H74.56ZM76.544 49.912V48.536H77.936V49.912H76.544ZM82.5325 57.56C83.7005 57.56 84.3725 56.968 84.3725 55.784V53.032L85.7165 52.232V55.576C85.7165 56.104 85.6525 56.584 85.5405 57L85.3805 57.56H87.8605V59H81.6525V57.56H82.5325ZM82.2445 61.624V60.248H83.6365V61.624H82.2445ZM84.2285 61.624V60.248H85.6205V61.624H84.2285ZM88.5069 57.56C89.7389 57.56 90.3469 56.92 90.3469 55.784V53.032L91.6909 52.232V55.704C91.6909 57.896 90.6189 59 88.4589 59H87.3869V57.56H88.5069ZM90.3949 50.984V49.608H91.7869V50.984H90.3949ZM96.1923 62.36L96.6083 60.904H96.8323C97.2963 60.904 97.6643 60.824 97.9203 60.664C98.4163 60.344 98.5923 59.864 98.6403 59.496L98.7043 59H96.4003C94.5603 59 93.6483 57.976 93.6483 55.912C93.6483 55.112 93.6803 54.456 93.7603 53.96C93.9043 53.064 94.6562 52.184 95.4083 51.992C95.8723 51.896 96.4963 51.848 97.3123 51.848C99.1203 51.848 100.032 52.872 100.032 54.92V59.416C99.8883 61.384 98.8163 62.36 96.7843 62.36H96.1923ZM95.0082 55.96C95.0082 57.032 95.5203 57.56 96.4323 57.56H98.6723V54.824C98.6243 53.8 98.1283 53.288 97.1683 53.288H96.5123C95.5043 53.288 95.0082 53.832 95.0082 54.76V55.96ZM101.416 60.824C102.584 60.824 103.192 60.232 103.24 59.032V53.08L104.616 52.264V57.56H105.864V59H104.632L104.6 59.416C104.456 61.384 103.448 62.376 101.4 62.376H101L101.304 60.824H101.416ZM106.267 57.56C107.435 57.56 108.107 56.968 108.107 55.784V53.032L109.451 52.232V55.576C109.451 56.104 109.387 56.584 109.275 57L109.115 57.56H111.595V59H105.387V57.56H106.267ZM107.099 50.952V49.576H108.491V50.952H107.099ZM109.083 50.952V49.576H110.475V50.952H109.083ZM111.121 59V57.56H117.809V56.536C117.809 54.856 116.753 53.576 115.217 53.576C114.849 53.576 114.433 53.704 113.937 53.96L112.673 52.952L115.137 48.536H116.865L115.073 51.8L115.745 51.864C116.609 51.944 117.361 52.376 118.017 53.144C118.801 54.056 119.217 55.112 119.217 56.296V57.56H120.881V59H111.121ZM120.627 57.56C121.795 57.56 122.403 56.968 122.451 55.784V49.688L123.795 48.888V55.576C123.795 57.864 122.771 59 120.723 59H120.402V57.56H120.627ZM126.078 57.56H128.206L126.718 50.904L128.062 50.024L129.742 57.592L130.142 57.544C131.15 57.4 131.646 56.808 131.646 55.784V49.816L132.974 49.016V55.576C132.974 57.864 131.95 59 129.902 59H125.742L126.078 57.56ZM126.43 62.52V61.8H127.15C127.118 61.736 127.086 61.672 127.07 61.624C126.942 61.416 126.894 61.256 126.894 60.92C126.894 60.152 127.502 59.512 128.27 59.512C128.638 59.512 128.942 59.64 129.214 59.912L128.894 60.28C128.734 60.168 128.558 60.104 128.366 60.104C127.87 60.104 127.47 60.488 127.47 60.952C127.47 61.416 127.87 61.8 128.366 61.8H129.422V62.52H126.43ZM134.93 59V49.704L136.306 48.888V59H134.93ZM148.562 59C147.602 59 146.93 58.744 146.498 58.264L146.258 57.992L145.938 58.168C145.506 58.408 144.946 58.536 144.29 58.536H143.106C141.234 58.536 140.242 57.352 140.258 55.288L140.274 53.736C140.29 52.92 140.498 52.328 140.93 51.944C141.458 51.416 142.178 51.16 143.106 51.16H145.794V50.792L147.186 50.456V55.608C147.186 56.84 147.826 57.56 148.978 57.56H149.394V59H148.562ZM141.586 55.544C141.586 56.536 142.05 57.112 142.994 57.112H144.29C145.25 57.112 145.746 56.6 145.794 55.56V52.584H143.106C142.13 52.584 141.586 53.096 141.586 54.12V55.544ZM141.826 49.912V48.536H143.218V49.912H141.826ZM143.81 49.912V48.536H145.202V49.912H143.81ZM154.022 59.576C153.094 59.576 152.342 59.32 151.83 58.776L151.59 58.52L151.286 58.712C150.95 58.92 150.454 59.016 149.782 59.016H148.918V57.56H149.35C150.486 57.56 151.142 56.936 151.142 55.704V55.416C151.142 53.384 152.118 52.184 154.022 52.184H155.19C157.094 52.184 158.038 53.208 158.038 55.256V55.688C158.038 56.888 158.646 57.56 159.846 57.56H160.406V59C159.862 59 159.446 58.984 159.174 58.936C158.902 58.904 158.71 58.872 158.614 58.84L158.038 58.648V59.576H154.022ZM152.47 55.08C152.47 55.88 152.486 56.392 152.486 56.632V56.712C152.486 57.656 153.078 58.136 153.926 58.136H156.678V55.256C156.678 54.76 156.598 54.408 156.422 54.168C156.07 53.72 155.542 53.64 155.27 53.64H154.006C153.03 53.64 152.518 54.12 152.47 55.08ZM159.934 59V57.56H160.894C161.854 57.56 162.622 56.792 162.622 55.832V49.608L163.982 48.808V54.872L167.07 52.072C167.838 51.448 168.67 51.128 169.55 51.128C170.286 51.128 170.942 51.304 171.534 51.672C172.686 52.392 173.406 53.672 173.47 55.128V57.56H174.814V59H159.934ZM164.222 57.56H172.094V55.336C172.094 53.864 170.942 52.632 169.598 52.632C169.022 52.632 168.494 52.808 167.998 53.144C167.566 53.448 167.15 53.784 166.782 54.12L164.222 56.424V57.56ZM168.974 49.88V48.504H170.366V49.88H168.974ZM175.46 57.56C176.692 57.56 177.3 56.92 177.3 55.784V53.032L178.644 52.232V55.704C178.644 57.896 177.572 59 175.412 59H174.34V57.56H175.46ZM177.348 50.984V49.608H178.74V50.984H177.348ZM181.769 49.88C181.737 49.816 181.705 49.752 181.689 49.704C181.577 49.496 181.513 49.336 181.513 49C181.513 48.232 182.121 47.592 182.889 47.592C183.257 47.592 183.577 47.72 183.849 47.992L183.529 48.36C183.353 48.248 183.177 48.184 182.985 48.184C182.489 48.184 182.089 48.568 182.089 49.032C182.089 49.496 182.489 49.88 182.985 49.88H184.041V50.6H181.049V49.88H181.769ZM180.601 59L180.937 57.56H183.065L181.897 52.184L183.225 51.304L184.601 57.592L185.001 57.544C186.009 57.416 186.505 56.808 186.505 55.784V49.816L187.833 49.016V55.576C187.833 56.104 187.785 56.584 187.673 57L187.513 57.56H189.577V59H180.601ZM189.314 57.56C190.482 57.56 191.09 56.968 191.138 55.784V49.688L192.482 48.888V55.576C192.482 57.864 191.458 59 189.41 59H189.09V57.56H189.314ZM196.43 59.368C196.43 57.112 197.438 55.976 199.454 55.976H200.334V55.528C200.334 53.208 201.294 52.088 203.198 52.088H204.366C206.27 52.088 207.214 53.064 207.214 55V59.48H203.198C201.71 59.48 200.862 58.904 200.51 57.8L200.414 57.496H199.534C198.414 57.496 197.774 58.12 197.774 59.368V61.128L196.43 61.912V59.368ZM201.662 56.424C201.662 57.448 202.142 57.992 203.118 58.04H205.886V55.16C205.886 54.12 205.406 53.544 204.446 53.544H203.198C202.222 53.544 201.662 54.024 201.662 55V56.424ZM209.164 59V49.704L210.54 48.888V59H209.164ZM211.916 60.824C213.084 60.824 213.692 60.232 213.74 59.032V53.08L215.116 52.264V57.56H216.364V59H215.132L215.1 59.416C214.956 61.384 213.948 62.376 211.9 62.376H211.5L211.804 60.824H211.916ZM217.007 57.56C218.239 57.56 218.847 56.92 218.847 55.784V53.032L220.191 52.232V55.704C220.191 57.896 219.119 59 216.959 59H215.887V57.56H217.007ZM215.727 61.624V60.248H217.119V61.624H215.727ZM217.711 61.624V60.248H219.103V61.624H217.711ZM222.148 59V49.704L223.524 48.888V59H222.148ZM221.332 63.128V62.408H222.052C222.02 62.344 221.988 62.28 221.972 62.232C221.844 62.024 221.796 61.864 221.796 61.528C221.796 60.76 222.404 60.12 223.172 60.12C223.54 60.12 223.844 60.248 224.116 60.52L223.796 60.888C223.636 60.776 223.46 60.712 223.268 60.712C222.772 60.712 222.372 61.096 222.372 61.56C222.372 62.024 222.772 62.408 223.268 62.408H224.324V63.128H221.332Z" fill="white"/>
</svg>

