<svg width="80" height="80" viewBox="0 0 80 80" fill="none" xmlns="http://www.w3.org/2000/svg">
<mask id="mask0_5_72" style="mask-type:luminance" maskUnits="userSpaceOnUse" x="0" y="0" width="80" height="80">
<path d="M80 0H0V80H80V0Z" fill="white"/>
</mask>
<g mask="url(#mask0_5_72)">
<path d="M37.3803 0.0215314C37.2083 0.0371716 36.6607 0.0919126 36.168 0.131013C24.8055 1.15545 14.1623 7.28643 7.4213 16.7097C3.66763 21.9492 1.26686 27.8925 0.359727 34.1877C0.0391007 36.3853 0 37.0343 0 40.0137C0 42.9933 0.0391007 43.6423 0.359727 45.8397C2.53372 60.8623 13.2239 73.484 27.7224 78.1603C30.3187 78.997 33.0557 79.568 36.168 79.912C37.3803 80.045 42.6197 80.045 43.832 79.912C49.2043 79.3177 53.7557 77.9883 58.2443 75.697C58.9327 75.345 59.0653 75.2513 58.9717 75.173C58.909 75.126 55.9767 71.1927 52.4573 66.438L46.0607 57.7967L38.045 45.9337C33.6343 39.4117 30.0059 34.0783 29.9746 34.0783C29.9433 34.0703 29.912 39.3413 29.8964 45.777C29.8729 57.046 29.8651 57.4997 29.7243 57.7653C29.521 58.1487 29.3646 58.305 29.0362 58.477C28.7859 58.6023 28.567 58.6257 27.3861 58.6257H26.0332L25.6735 58.399C25.4389 58.2503 25.2669 58.0547 25.1496 57.828L24.9853 57.476L25.001 41.7967L25.0244 26.1095L25.2669 25.8045C25.392 25.6403 25.6579 25.4292 25.8456 25.3275C26.1662 25.1711 26.2913 25.1555 27.6442 25.1555C29.2395 25.1555 29.5054 25.218 29.9198 25.6716C30.0371 25.7967 34.3773 32.3343 39.57 40.2093C44.7623 48.084 51.863 58.8367 55.351 64.1153L61.6853 73.7107L62.006 73.4997C64.8447 71.654 67.8477 69.0263 70.2247 66.2893C75.2843 60.479 78.5453 53.394 79.6403 45.8397C79.961 43.6423 80 42.9933 80 40.0137C80 37.0343 79.961 36.3853 79.6403 34.1877C77.4663 19.1652 66.776 6.54353 52.2777 1.86708C49.7203 1.03815 46.999 0.46728 43.9493 0.123193C43.1983 0.044992 38.0293 -0.0410297 37.3803 0.0215314ZM53.7557 24.217C54.131 24.4047 54.436 24.7644 54.5453 25.1398C54.608 25.3431 54.6237 29.6911 54.608 39.4897L54.5847 53.5503L52.1057 49.7497L49.6187 45.9493V35.7283C49.6187 29.1203 49.65 25.4057 49.697 25.2258C49.822 24.7879 50.0957 24.4438 50.471 24.2405C50.7917 24.0763 50.909 24.0606 52.137 24.0606C53.2943 24.0606 53.4977 24.0763 53.7557 24.217Z" fill="#FEFEFE"/>
</g>
</svg>
