<svg width="84" height="74" viewBox="0 0 84 74" fill="none" xmlns="http://www.w3.org/2000/svg">
<path d="M42 44.3366C46.0931 44.3366 49.4112 41.0185 49.4112 36.9254C49.4112 32.8324 46.0931 29.5143 42 29.5143C37.907 29.5143 34.5889 32.8324 34.5889 36.9254C34.5889 41.0185 37.907 44.3366 42 44.3366Z" fill="#00D8FF"/>
<path d="M42 53.9178C33.0922 54.1333 24.2067 52.9325 15.6756 50.3604C11.7347 49.1112 8.05911 47.1432 4.83457 44.556C3.60411 43.6722 2.57942 42.5326 1.8308 41.2155C1.08219 39.8984 0.627371 38.4349 0.497559 36.9255C0.497559 32.0252 5.88102 27.2228 14.8989 24.0805C23.6581 21.2961 32.81 19.9467 42 20.0844C51.0674 19.9577 60.0967 21.2828 68.7454 24.0093C72.5407 25.2193 76.0917 27.0922 79.2336 29.541C80.4431 30.3836 81.4524 31.4819 82.1901 32.7581C82.9278 34.0342 83.3758 35.4569 83.5025 36.9255C83.5025 42.0184 77.4846 47.1796 67.7908 50.3871C59.4249 52.8754 50.7269 54.0661 42 53.9178ZM42 23.6299C33.2078 23.5124 24.4529 24.7952 16.0639 27.4303C7.76345 30.3266 4.04305 34.2871 4.04305 36.9166C4.04305 39.6676 8.04211 43.9928 16.8228 46.9958C24.9842 49.444 33.482 50.5836 42 50.3723C50.3491 50.5216 58.6719 49.3919 66.6791 47.0225C75.7949 44.0017 79.9451 39.6706 79.9451 36.9255C79.7955 35.9835 79.4522 35.0827 78.9369 34.2801C78.4215 33.4775 77.7453 32.7904 76.951 32.2624C74.14 30.0899 70.9678 28.4301 67.5803 27.3592C59.3066 24.7616 50.671 23.5026 42 23.6299Z" fill="#00D8FF"/>
<path d="M25.1619 73.8894C23.779 73.9211 22.4123 73.5856 21.2014 72.917C16.9562 70.4684 15.4859 63.4071 17.2675 54.0245C19.2319 45.0455 22.6356 36.4432 27.3467 28.5509C31.7659 20.6331 37.4234 13.4734 44.1048 7.34316C47.049 4.65945 50.4454 2.51863 54.1365 1.01996C55.4716 0.394283 56.928 0.0699463 58.4024 0.0699463C59.8768 0.0699463 61.3332 0.394283 62.6682 1.01996C67.0823 3.56347 68.5438 11.3541 66.4835 21.3532C64.4584 29.8451 61.1432 37.9762 56.6533 45.4632C52.3897 53.2874 46.9103 60.3848 40.42 66.4901C37.3689 69.279 33.828 71.4791 29.9762 72.9793C28.4341 73.5516 26.8064 73.8593 25.1619 73.8894ZM30.4179 30.3118C25.924 37.8692 22.6618 46.0937 20.7537 54.6767C19.1144 63.3181 20.6885 68.5148 22.9771 69.837C25.3486 71.2095 31.1056 69.9081 38.0958 63.8013C44.2916 57.9523 49.5215 51.1585 53.591 43.6726C57.8923 36.515 61.0724 28.7411 63.021 20.621C64.9598 11.2088 63.2848 5.44591 60.9073 4.07632C60.0163 3.7349 59.064 3.58206 58.1109 3.62747C57.1577 3.67289 56.2243 3.91556 55.3697 4.34016C52.0842 5.69595 49.0635 7.62072 46.4467 10.026C40.0632 15.898 34.6591 22.7522 30.4386 30.3296L30.4179 30.3118Z" fill="#00D8FF"/>
<path d="M58.8292 73.9281C54.8124 73.9281 49.7106 71.4972 44.3982 66.929C37.5998 60.743 31.8467 53.4982 27.3615 45.4752C22.7095 37.6916 19.3327 29.2138 17.3594 20.3632C16.5036 16.4694 16.345 12.4546 16.891 8.50538C17.0172 7.04036 17.4633 5.62088 18.1978 4.34702C18.9323 3.07316 19.9374 1.97595 21.142 1.13276C25.5502 -1.41964 33.0295 1.20391 40.663 7.98067C47.0087 13.9754 52.3975 20.9078 56.6415 28.5362C61.2906 36.1381 64.7027 44.4303 66.7503 53.1027C67.6429 57.1394 67.7806 61.3065 67.1564 65.3934C67.0079 66.9005 66.5352 68.3577 65.7708 69.6651C65.0063 70.9725 63.9682 72.099 62.7275 72.9676C61.5363 73.6278 60.1909 73.9593 58.8292 73.9281ZM30.4297 43.6906C34.7324 51.3579 40.2281 58.2916 46.7105 64.2313C53.3776 69.9675 58.6662 71.2008 60.9399 69.8638C63.3115 68.4853 65.0605 62.8588 63.2581 53.7549C61.2835 45.475 58.0107 37.5598 53.5614 30.3031C49.5114 23.002 44.3678 16.3638 38.3092 10.619C31.1234 4.23952 25.2953 2.81361 22.9207 4.18912C22.1806 4.79056 21.5733 5.53891 21.137 6.38693C20.7008 7.23496 20.4451 8.16422 20.3861 9.11606C19.9148 12.6381 20.0683 16.2157 20.8397 19.6844C22.7378 28.1483 25.9763 36.2546 30.4327 43.6965L30.4297 43.6906Z" fill="#00D8FF"/>
</svg>
